<svg xmlns="http://www.w3.org/2000/svg" viewBox="0 0 400 400" width="400" height="400" role="img" aria-label="Timeline 2026 — Open dashboard">
  <rect width="400" height="400" fill="#EAF0F7"/>
  <g transform="translate(70,140)">
    <rect x="0" y="0" width="260" height="160" rx="6" fill="#FFFFFF" stroke="#0A2540" stroke-width="2"/>
    <rect x="14" y="14" width="70" height="6" fill="#0A2540"/>
    <rect x="220" y="14" width="28" height="10" rx="3" fill="#B91C2C"/>
    <rect x="14"  y="42" width="66" height="42" rx="4" fill="#EAF0F7"/>
    <rect x="90"  y="42" width="66" height="42" rx="4" fill="#EAF0F7"/>
    <rect x="166" y="42" width="82" height="42" rx="4" fill="#EAF0F7"/>
    <polyline points="14,140 50,122 90,128 130,108 170,92 210,82 248,72"
              fill="none" stroke="#0A2540" stroke-width="2"/>
    <polyline points="14,148 50,138 90,134 130,120 170,108 210,96 248,88"
              fill="none" stroke="#B91C2C" stroke-width="2" stroke-dasharray="3 3"/>
  </g>
  <text x="200" y="90" text-anchor="middle" font-family="'Source Serif 4', Georgia, serif" font-weight="700" font-size="34" fill="#0A2540">2026</text>
  <text x="200" y="340" text-anchor="middle" font-family="Inter, system-ui, sans-serif" font-weight="600" font-size="12" fill="#0A2540" letter-spacing="1.6">DASHBOARD PEMILU TERBUKA</text>
</svg>
